<?xml version="1.0" encoding="UTF-8"?>
<svg version="1.1" xmlns="http://www.w3.org/2000/svg" width="15001" height="15000">
<path d="M0 0 C-3.28117187 14.66893381 -7.99055416 28.85981537 -12.6875 43.125 C-13.10823478 44.40691866 -13.52889862 45.6888606 -13.94949341 46.9708252 C-22.02057036 71.5425239 -30.69977588 95.86516223 -40 120 C-40.27783325 120.7211499 -40.5556665 121.4422998 -40.84191895 122.18530273 C-44.18515522 130.84168705 -47.6385052 139.45075676 -51.18414307 148.02642822 C-52.05993251 150.14497775 -52.93297738 152.26464901 -53.80615234 154.38427734 C-66.45537033 185.04059038 -80.0841295 215.19271263 -94.56445312 245.02734375 C-96.05108613 248.10578652 -97.51985275 251.19223167 -98.984375 254.28125 C-105.67022909 268.36500327 -112.68130091 282.23527454 -120 296 C-120.59216309 297.11842285 -121.18432617 298.2368457 -121.79443359 299.38916016 C-129.92792509 314.74938183 -138.25075701 329.97991657 -147 345 C-147.64727051 346.1152002 -148.29454102 347.23040039 -148.96142578 348.37939453 C-158.06987192 364.0693784 -167.32780584 379.64896525 -177 395 C-177.53625 395.85513184 -178.0725 396.71026367 -178.625 397.59130859 C-197.35516409 427.43698574 -217.21088958 456.55174364 -238 485 C-238.57492187 485.78890625 -239.14984375 486.5778125 -239.7421875 487.390625 C-246.87738136 497.17425326 -254.12013031 506.84559649 -261.66455078 516.31738281 C-263.5286912 518.66613158 -265.37373651 521.02963906 -267.22045898 523.39208984 C-271.69083016 529.10651877 -276.21925332 534.76654031 -280.83203125 540.3671875 C-282.27314373 542.11729526 -283.70809403 543.87249612 -285.13671875 545.6328125 C-290.78713596 552.59185417 -296.59571526 559.40338402 -302.44726562 566.19287109 C-303.98645982 567.98424144 -305.51787119 569.78195887 -307.046875 571.58203125 C-312.75686236 578.29624603 -318.57709647 584.87791612 -324.5625 591.34765625 C-326.51743878 593.47490534 -328.42882045 595.62272252 -330.3125 597.8125 C-337.90342141 606.55856162 -345.89029482 615.01402006 -354.15576172 623.12329102 C-355.86143161 624.85899189 -357.43631243 626.64327392 -359.0078125 628.5 C-363.41831438 633.57134743 -368.15577159 638.30608584 -372.9152832 643.0456543 C-374.43491668 644.5599258 -375.94912517 646.0794743 -377.46289062 647.59960938 C-382.26318717 652.40284722 -387.11982302 657.08123821 -392.28149414 661.49975586 C-394.81937547 663.71530931 -397.14614594 666.08942656 -399.5 668.5 C-403.13559136 672.18488963 -406.84612967 675.70735904 -410.78515625 679.06640625 C-413.11336338 681.09896803 -415.37159661 683.19400071 -417.62988281 685.3034668 C-423.03592007 690.3526052 -428.54899239 695.15527795 -434.3203125 699.7890625 C-437.13253315 702.1093495 -439.81797263 704.53071134 -442.5 707 C-447.82631088 711.89506128 -453.36940695 716.4617902 -459 721 C-460.77151295 722.4575077 -462.54234017 723.91584922 -464.3125 725.375 C-470.15441396 730.15249743 -476.08056708 734.81689455 -482.02978516 739.45947266 C-484.1108819 741.08669948 -486.18639425 742.72088808 -488.26171875 744.35546875 C-498.64973132 752.51544039 -509.22558242 760.35874816 -520 768 C-520.7434668 768.52996582 -521.48693359 769.05993164 -522.25292969 769.60595703 C-586.92440136 815.65482643 -655.99251846 855.50151161 -728.80859375 887.17333984 C-732.55666698 888.80390513 -736.29460343 890.45667972 -740.03125 892.11328125 C-828.00347 930.82105805 -922.18393018 956.62841812 -1243.80810547 990.26074219 C-1248.85762222 990.24936437 -1253.90692756 990.25614017 -1258.95643711 990.26762009 C-1296.12967111 990.33913127 -1333.24410291 989.10628617 -1370.3125 986.25 C-1371.39227112 986.16896027 -1372.47204224 986.08792053 -1373.58453369 986.00442505 C-1405.32876078 983.60774533 -1437.00204533 980.22686213 -1468.6015625 976.37890625 C-1469.63542084 976.25555405 -1470.66927917 976.13220184 -1471.73446655 976.00511169 C-1472.67625763 975.88813431 -1473.61804871 975.77115692 -1474.58837891 975.65063477 C-1475.41914948 975.54888443 -1476.24992004 975.44713409 -1477.10586548 975.34230042 C-1479 975 -1479 975 -1480 974 C-1479.9194628 962.79760699 -1477.88200916 951.64622677 -1476.0625 940.625 C-1475.91072296 939.7009436 -1475.75894592 938.77688721 -1475.60256958 937.8248291 C-1458.99603653 837.4031184 -1428.87204786 738.95847715 -1374 613 C-1373.54623993 612.01063446 -1373.54623993 612.01063446 -1373.08331299 611.00128174 C-1359.70433431 581.8595982 -1345.42438209 553.25957948 -1329.40966797 525.46826172 C-1327.67309386 522.42760287 -1325.98913295 519.36010643 -1324.30932617 516.2878418 C-1304.88834763 480.82083522 -1282.42695475 446.92750695 -1259 414 C-1258.4524707 413.22962402 -1257.90494141 412.45924805 -1257.34082031 411.66552734 C-1249.45712457 400.59794142 -1241.33247319 389.73331023 -1233 379 C-1232.52852539 378.3920459 -1232.05705078 377.7840918 -1231.57128906 377.15771484 C-1221.14339343 363.73614726 -1210.42922357 350.54386307 -1199.38574219 337.62402344 C-1197.94270908 335.93285779 -1196.50625183 334.23625381 -1195.0703125 332.5390625 C-1189.60630805 326.09972435 -1184.04503253 319.77784384 -1178.27172852 313.61328125 C-1175.70863838 310.87353533 -1173.20187994 308.09746006 -1170.74365234 305.26293945 C-1159.68086637 292.600082 -1147.8279389 280.66539976 -1135.92700195 268.79663086 C-1133.53673893 266.41179745 -1131.15196242 264.02156895 -1128.76757812 261.63085938 C-1127.22167518 260.08561628 -1125.67546257 258.54068291 -1124.12890625 256.99609375 C-1123.08024132 255.94439247 -1123.08024132 255.94439247 -1122.01039124 254.8714447 C-1118.24039679 251.11914141 -1114.41514952 247.51202279 -1110.32055664 244.11497498 C-1108.47258517 242.43071813 -1106.93689135 240.79526308 -1105.32470703 238.90394592 C-1094.78010872 227.08476933 -1082.28481651 225.24486053 -1067.22265625 222.3984375 C-1064.49487685 221.85080041 -1061.77026491 221.28807795 -1059.04547119 220.72579956 C-1053.16382897 219.51980596 -1047.27616108 218.34846145 -1041.38296509 217.20031738 C-1032.70278271 215.50853422 -1024.03483161 213.75966524 -1015.36916578 211.99519157 C-1011.26166964 211.15884276 -1007.15378862 210.3243916 -1003.04582214 209.49035645 C-1002.21972209 209.32261971 -1001.39362203 209.15488297 -1000.54248863 208.98206329 C-994.57601714 207.77173954 -988.60756536 206.57150641 -982.63813782 205.37585449 C-957.97694048 200.4348503 -933.34723463 195.35596228 -908.734375 190.1796875 C-907.86036262 189.99592757 -906.98635023 189.81216763 -906.08585262 189.62283921 C-898.1346219 187.95101759 -890.18368617 186.27779732 -882.233181 184.60252857 C-869.80777847 181.98440236 -857.38063509 179.37468592 -844.95214844 176.77124023 C-844.07639805 176.58779017 -843.20064767 176.40434011 -842.29835939 176.21533096 C-837.90768842 175.29562802 -833.5169881 174.37606528 -829.12627411 173.45656776 C-821.39366848 171.83714853 -813.66131466 170.21652774 -805.92895555 168.59593189 C-803.42810334 168.07179041 -800.9272462 167.54767241 -798.42638779 167.02356052 C-772.0547035 161.49672615 -745.68357077 155.9672609 -719.3125 150.4375 C-717.44768667 150.04646843 -717.44768667 150.04646843 -715.54520035 149.64753723 C-704.41235176 147.31309408 -693.27951121 144.97861258 -682.14668274 142.64407349 C-664.48715455 138.94089532 -646.82757745 135.23795048 -629.16796875 131.53515625 C-627.88421167 131.26598326 -626.6004546 130.99681026 -625.27779579 130.71948051 C-618.78296596 129.35767198 -612.28813537 127.99586705 -605.79330444 126.63406372 C-594.15296319 124.19337401 -582.51262858 121.75265255 -570.87229347 119.31193352 C-564.41486259 117.95795438 -557.95743127 116.60397729 -551.5 115.25 C-548.91666666 114.70833334 -546.33333333 114.16666668 -543.75 113.625 C-280.2499963 58.37499922 -280.2499963 58.37499922 -276.37491798 57.56248283 C-273.79185802 57.02087347 -271.20879807 56.47926402 -268.62573814 55.9376545 C-262.16322238 54.58261051 -255.70070633 53.22756789 -249.2381897 51.87252808 C-237.66313251 49.44550574 -226.08807721 47.01847442 -214.51303291 44.59139061 C-208.12066922 43.25102435 -201.72830381 41.9106663 -195.3359375 40.5703125 C-194.0676347 40.30437412 -192.79933189 40.03843575 -191.49259567 39.76443863 C-173.12927453 35.91402525 -154.76586236 32.06404627 -136.40239787 28.21431661 C-131.42611688 27.17108248 -126.44984219 26.12781828 -121.47357178 25.08453369 C-120.77633444 24.93835657 -120.0790971 24.79217945 -119.36073136 24.64157271 C-115.86985208 23.90970204 -112.37897366 23.17782728 -108.88809586 22.44594955 C-100.89685114 20.77055706 -92.90557737 19.09530322 -84.91427994 17.4201622 C-79.96068999 16.38174561 -75.00713508 15.3431619 -70.05358124 14.30457306 C-66.53496756 13.56693153 -63.01629626 12.8295653 -59.49761963 12.09222412 C-49.0339233 9.89896421 -38.57141127 7.70040398 -28.11230469 5.48535156 C-26.29918751 5.10180098 -24.4860671 4.7182657 -22.67294312 4.33474731 C-19.38178483 3.63851712 -16.09119337 2.93969102 -12.80093384 2.23922729 C-11.37300564 1.93689786 -9.94505893 1.63465582 -8.51708984 1.33251953 C-7.29597504 1.07294464 -6.07486023 0.81336975 -4.81674194 0.54592896 C-2 0 -2 0 0 0 Z " fill="#80C242" transform="translate(5068,7415)"/>
<path d="M0 0 C-0.52708856 10.05602288 -3.23294878 19.50261703 -5.8125 29.1875 C-6.05509552 30.10605774 -6.29769104 31.02461548 -6.54763794 31.9710083 C-15.03756803 64.05360334 -25.25221487 95.61058841 -36 127 C-36.2211145 127.64743164 -36.442229 128.29486328 -36.67004395 128.96191406 C-53.19972277 177.32090696 -72.76808517 224.53178841 -94 271 C-94.74056641 272.63557861 -94.74056641 272.63557861 -95.49609375 274.30419922 C-103.6282533 292.23983552 -112.33589917 309.87889729 -121.125 327.5 C-121.67199554 328.59925812 -122.21899109 329.69851624 -122.78256226 330.83108521 C-129.81321653 344.94470497 -137.08160012 358.89358514 -144.72039795 372.68780518 C-145.84852087 374.72628267 -146.97060475 376.76784752 -148.08837891 378.81201172 C-157.03774076 395.16623705 -166.34518187 411.28565564 -175.95452881 427.26123047 C-177.02126368 429.03536457 -178.08619876 430.81056969 -179.15087891 432.5859375 C-188.14892556 447.58020184 -197.33167518 462.42607194 -207 477 C-207.67643555 478.02416016 -208.35287109 479.04832031 -209.04980469 480.10351562 C-228.42904263 509.43565394 -248.58145169 538.11724247 -270 566 C-270.95077534 567.24199271 -271.90132596 568.48415751 -272.8515625 569.7265625 C-275.22432482 572.82552137 -277.60930419 575.91484497 -280 579 C-280.41491699 579.5357666 -280.82983398 580.0715332 -281.25732422 580.62353516 C-292.0240437 594.50108916 -303.22822495 608.02510121 -314.62597656 621.38769531 C-316.07390022 623.08671589 -317.51740312 624.7894368 -318.9609375 626.4921875 C-324.69345249 633.2362685 -330.54458887 639.84226298 -336.5546875 646.33984375 C-338.55160793 648.51221246 -340.50828734 650.70539163 -342.4375 652.9375 C-346.92142499 658.09984391 -351.58567626 663.0957392 -356.23957825 668.10414124 C-357.37212639 669.3238213 -358.50370641 670.54440141 -359.63407898 671.76609802 C-369.23005023 682.13247872 -379.07120106 692.22860684 -389.07299805 702.20336914 C-391.46326107 704.58820255 -393.84803758 706.97843105 -396.23242188 709.36914062 C-397.77832482 710.91438372 -399.32453743 712.45931709 -400.87109375 714.00390625 C-401.5702037 714.70504044 -402.26931366 715.40617462 -402.98960876 716.1285553 C-406.9254737 720.04595073 -410.95594045 723.78616983 -415.18177795 727.38975525 C-417.64778322 729.57368655 -419.90882391 731.92588127 -422.1640625 734.32421875 C-427.50204664 739.19654895 -432.22834206 740.85629022 -439.20532227 742.2253418 C-440.12802194 742.41751093 -441.05072161 742.60968006 -442.00138187 742.8076725 C-445.10396798 743.45063201 -448.21005884 744.0747055 -451.31640625 744.69921875 C-453.56449262 745.1615466 -455.81231906 745.62513986 -458.05990601 746.08988953 C-462.95527196 747.09969843 -467.85219947 748.10142328 -472.75045776 749.09710693 C-480.70894907 750.71528764 -488.66355896 752.35196406 -496.61743164 753.99267578 C-498.70084276 754.4223309 -500.78425851 754.85196356 -502.86767441 755.28159547 C-504.280229 755.57289413 -505.6927781 755.86421939 -507.10532182 756.15557075 C-511.46320316 757.05429582 -515.82138913 757.95152722 -520.1798088 758.84763789 C-542.9207906 763.52336194 -565.6478931 768.26302048 -588.3671875 773.04296875 C-589.57673784 773.29743389 -589.57673784 773.29743389 -590.81072354 773.55703974 C-599.85738655 775.46042368 -608.90370228 777.36545462 -617.94985962 779.27124023 C-633.88313119 782.62794564 -649.8176904 785.97853202 -665.75219655 789.32937098 C-668.25147198 789.85495683 -670.75073649 790.38059458 -673.24999809 790.90624619 C-705.63459058 797.71733523 -738.02446909 804.50301532 -770.41665173 811.27790403 C-781.53953728 813.60429772 -792.66236621 815.93096218 -803.78515625 818.2578125 C-804.4349262 818.39373896 -805.08469616 818.52966543 -805.75415611 818.66971087 C-839.01636201 825.62795278 -872.27457573 832.6052128 -905.53246403 839.58405733 C-907.81153582 840.06229768 -910.09060887 840.54053204 -912.36968231 841.0187645 C-919.92551525 842.6042539 -927.48134399 844.18976336 -935.03717041 845.77528381 C-936.15095723 846.0090015 -936.15095723 846.0090015 -937.2872448 846.24744076 C-941.02447334 847.03166452 -944.76170024 847.81589615 -948.49892426 848.60014153 C-978.07236484 854.80602672 -1007.64672349 861.00752755 -1037.22134018 867.20780563 C-1070.8667279 874.26154634 -1104.5118487 881.31655592 -1138.15625 888.375 C-1138.90000586 888.53103596 -1139.64376172 888.68707193 -1140.41005564 888.84783626 C-1155.56309358 892.02686469 -1170.71610203 895.20603364 -1185.86905491 898.38546747 C-1194.14966925 900.12292662 -1202.43029671 901.86032317 -1210.7109375 903.59765625 C-1211.45224836 903.75318883 -1212.19355922 903.90872141 -1212.95733404 904.0689671 C-1233.56684241 908.39296384 -1254.17689174 912.71437064 -1274.78759003 917.03269196 C-1278.77460801 917.86805245 -1282.76160502 918.70351299 -1286.74859619 919.53900146 C-1287.40114026 919.67574374 -1288.05368433 919.81248602 -1288.72600245 919.953372 C-1291.99547177 920.63849951 -1295.26493902 921.32363683 -1298.53440475 922.00878143 C-1304.9313274 923.34928353 -1311.32829023 924.68959322 -1317.7253418 926.02947998 C-1344.43983968 931.62516951 -1371.15097778 937.23613676 -1397.85253525 942.89324379 C-1401.75821772 943.7206955 -1405.6640274 944.54754569 -1409.56985474 945.37431335 C-1412.11151379 945.91237195 -1414.65317031 946.45044251 -1417.19482422 946.98852539 C-1418.43455805 947.25098022 -1419.67429188 947.51343504 -1420.9515934 947.78384304 C-1428.21892006 949.32283108 -1435.48540894 950.86570284 -1442.75128365 952.41153049 C-1447.17554784 953.35201896 -1451.60048707 954.28930015 -1456.02560806 955.22574806 C-1458.07178468 955.65953311 -1460.11765731 956.09475489 -1462.16320419 956.53149986 C-1464.94397621 957.12509752 -1467.72574351 957.71378559 -1470.5078125 958.30126953 C-1471.31817522 958.47555701 -1472.12853794 958.64984449 -1472.96345711 958.82941341 C-1476.4123954 959.55289584 -1479.45809278 960 -1483 960 C-1481.50708885 948.29913765 -1478.82955334 936.90585083 -1476.125 925.4375 C-1475.88390503 924.41212128 -1475.64281006 923.38674255 -1475.39440918 922.33029175 C-1454.90053243 835.45236407 -1425.66925587 750.76871278 -1342.59570312 580.79736328 C-1340.99901063 577.99826557 -1339.42570972 575.18727776 -1337.859375 572.37109375 C-1326.377031 551.76212225 -1314.00048252 531.68522845 -1301 512 C-1300.52111328 511.27409668 -1300.04222656 510.54819336 -1299.54882812 509.80029297 C-1284.71960426 487.35879847 -1269.25619812 465.43227249 -1253 444 C-1252.57654297 443.44006348 -1252.15308594 442.88012695 -1251.71679688 442.30322266 C-1245.65667179 434.30068822 -1239.38200726 426.49102391 -1233.03125 418.71875 C-1230.62150201 415.76888609 -1228.24029419 412.79819922 -1225.875 409.8125 C-1221.51701483 404.35134286 -1216.99679031 399.03037844 -1212.46191406 393.71630859 C-1210.99859967 391.99835599 -1209.54185885 390.27500115 -1208.0859375 388.55078125 C-1202.38716741 381.82470432 -1196.54328351 375.27040691 -1190.51318359 368.83935547 C-1187.69806082 365.83650095 -1184.929875 362.81298932 -1182.25 359.6875 C-1179.15101432 356.08991514 -1175.81323039 352.77402948 -1172.40625 349.46875 C-1170.52117799 347.53471508 -1168.77680211 345.58645872 -1167.02734375 343.53515625 C-1162.21545927 337.99212368 -1157.00013165 332.85069382 -1151.80297852 327.67260742 C-1150.066064 325.941053 -1148.33456111 324.20421641 -1146.60351562 322.46679688 C-1141.39686971 317.25735234 -1136.17971749 312.13629709 -1130.57202148 307.35375977 C-1128.61081622 305.66485105 -1126.79717048 303.86135514 -1125 302 C-1121.8501997 298.80738688 -1118.58780511 295.82838721 -1115.1875 292.90625 C-1112.64488601 290.69054352 -1110.16889802 288.40901408 -1107.6875 286.125 C-1103.14475315 281.97754742 -1098.45880038 278.06767305 -1093.671875 274.20703125 C-1091.1014095 272.08376662 -1088.64080637 269.88188151 -1086.1875 267.625 C-1081.8122041 263.64244719 -1077.25270734 259.9818193 -1072.58129883 256.35888672 C-1068.78487785 253.41224454 -1065.04190563 250.41206051 -1061.33105469 247.35839844 C-1045.75506827 234.55078504 -1029.43594505 222.67468619 -1013 211 C-1011.70352539 210.07815918 -1011.70352539 210.07815918 -1010.38085938 209.13769531 C-973.28822866 182.84502158 -934.17239521 159.27144718 -894 138 C-892.42508789 137.1651709 -892.42508789 137.1651709 -890.81835938 136.31347656 C-841.1309614 110.06211772 -789.84846644 88.05935221 -737 69 C-736.30106628 68.74776672 -735.60213257 68.49553345 -734.88201904 68.23565674 C-694.978473 53.87103411 -654.15241373 42.19727319 -613 32 C-612.14805054 31.78857361 -611.29610107 31.57714722 -610.41833496 31.35931396 C-506.03994618 5.53721622 -398.71114491 -7.06813044 0 0 Z " fill="#80C242" transform="translate(5533,6548)"/>
<path d="M0 0 C0.825 0.71542969 1.65 1.43085938 2.5 2.16796875 C13.55950646 11.9314393 23.21003129 22.19139935 32 34 C32.63679688 34.85335937 33.27359375 35.70671875 33.9296875 36.5859375 C37.92524374 42.12816067 41.4390642 47.93476068 44.89306641 53.82397461 C46.77450775 57.02326671 48.69055432 60.09126778 51 63 C51.63164063 62.40574219 52.26328125 61.81148437 52.9140625 61.19921875 C59.66767645 54.94190785 66.66142067 49.14028177 73.97460938 43.54980469 C75.36710834 42.48428113 76.75625546 41.41436736 78.14257812 40.34082031 C99.96894569 23.45430396 122.92019914 8.46285926 147 -5 C147.7429834 -5.42039551 148.4859668 -5.84079102 149.25146484 -6.27392578 C216.17333749 -43.96772967 296.00308778 -60.64656122 370.94726562 -39.91381836 C381.38921249 -36.86825052 391.23963518 -32.77671949 401 -28 C401.72848145 -27.64534668 402.45696289 -27.29069336 403.20751953 -26.92529297 C413.52007418 -21.84331359 422.88328652 -15.99169992 432 -9 C432.87269531 -8.35160156 433.74539062 -7.70320313 434.64453125 -7.03515625 C448.78069412 3.93068438 461.78673057 17.31497477 472 32 C472.76699219 33.04929688 473.53398438 34.09859375 474.32421875 35.1796875 C487.23768922 53.26221401 496.9749861 73.97652532 504 95 C504.2995459 95.87978516 504.5990918 96.75957031 504.90771484 97.66601562 C520.21884479 143.18338648 522.31884154 190.1754148 522.27269709 237.7216866 C522.27017546 242.65566816 522.27934606 247.58963111 522.28707886 252.52360535 C522.29901683 261.04082078 522.30422608 269.55801767 522.30496025 278.07524109 C522.30629854 290.42284078 522.32151914 302.77039619 522.34045542 315.11798006 C522.37116771 335.20511271 522.39539255 355.29224649 522.41333008 375.37939453 C522.41440276 376.5768938 522.41547544 377.77439307 522.41658062 379.0081802 C522.42839924 392.36594644 522.4386084 405.72371312 522.44702148 419.08148193 C522.45009591 423.92785646 522.45318464 428.77423097 522.45629883 433.62060547 C522.45706417 434.81661473 522.45782951 436.012624 522.45861804 437.24487597 C522.47174967 457.26645557 522.49645225 477.2880028 522.53004223 497.30955839 C522.55019147 509.60991758 522.56064128 521.91020727 522.55805302 534.21058309 C522.5570092 542.65035034 522.56679355 551.0900629 522.58469205 559.52981102 C522.594622 564.37834318 522.59999159 569.22675418 522.59192467 574.07529259 C522.50875385 629.59560078 527.46860711 689.35832715 559.49511719 736.64501953 C563 741.82296919 563 741.82296919 563 744 C561.72509766 745.24584961 561.72509766 745.24584961 559.9140625 746.65234375 C559.23972168 747.17610596 558.56538086 747.69986816 557.87060547 748.23950195 C557.12955566 748.79984131 556.38850586 749.36018066 555.625 749.9375 C554.86203613 750.51653076 554.09907227 751.09556152 553.31298828 751.69213867 C545.22468733 757.72822113 536.74665088 762.98056923 528 768 C527.36384766 768.36963867 526.72769531 768.73927734 526.07226562 769.12011719 C515.50732813 775.21095522 504.41381766 779.75046407 493 784 C491.90461914 784.41378906 491.90461914 784.41378906 490.78710938 784.8359375 C451.19585885 799.60497279 402.63232485 804.90507783 361 796 C360.18917969 795.82839355 359.37835937 795.65678711 358.54296875 795.47998047 C329.98297559 789.18891111 304.83318638 775.39263753 288.375 750.4375 C269.87768158 721.10586435 264.8442412 685.33161714 264.85523987 651.26057434 C264.85210026 649.68426112 264.84852411 648.10794872 264.84455246 646.53163737 C264.83491614 642.22461931 264.8313141 637.9176145 264.82870948 633.61058724 C264.82479636 628.95519328 264.81515972 624.29981083 264.80615234 619.64442444 C264.79124486 611.58138579 264.77968579 603.51834804 264.77020454 595.45530128 C264.75628842 583.77147749 264.73509305 572.08767502 264.71177601 560.40386661 C264.67388811 541.41125791 264.63892155 522.41864535 264.60717773 503.42602539 C264.60527724 502.29014529 264.60337675 501.15426518 264.60141867 499.98396447 C264.57462584 483.88895134 264.5507394 467.79393521 264.52803367 451.69891586 C264.52643637 450.56697724 264.52483906 449.43503862 264.52319336 448.26879883 C264.52159989 447.13825216 264.52000643 446.00770549 264.51836468 444.84289984 C264.49151795 425.93505251 264.45708505 407.02722785 264.41653961 388.11940497 C264.39187915 376.47908836 264.37348886 364.83879602 264.363384 353.1984575 C264.35594458 345.2056829 264.34134626 337.21294095 264.32131977 329.22018806 C264.31002613 324.62179588 264.30178792 320.02345612 264.30232811 315.42504883 C264.66684011 253.77428651 264.66684011 253.77428651 236.05078125 200.87890625 C222.54664444 187.68343543 203.41122313 182.60829672 185.02734375 182.7890625 C150.05520656 184.15325374 117.19836081 208.45659868 92.71875 231.4921875 C90 234 90 234 86.87719715 236.08436698 C84.26523104 238.27373608 83.55101891 239.73938126 83.24839699 243.12837249 C83.21695716 244.80460064 83.21864143 246.4816427 83.24609566 248.15794086 C83.23748422 249.08725049 83.22887278 250.01656012 83.22000039 250.97403064 C83.19834556 254.10577684 83.21962673 257.23577717 83.24050903 260.36750793 C83.23376515 262.62809809 83.22438937 264.88868169 83.21259964 267.14925116 C83.18778599 273.37479685 83.20045576 279.59979674 83.21906328 285.82534349 C83.23122027 291.84512551 83.21526618 297.86478883 83.19993604 303.88454715 C83.16954746 316.20001062 83.16706343 328.51533265 83.18042374 340.83082008 C83.19356316 353.02656288 83.19433631 365.22220293 83.17855453 377.41794395 C83.17709367 378.55492594 83.17709367 378.55492594 83.1756033 379.71487726 C83.17059295 383.56423728 83.16536129 387.41359697 83.16004442 391.26295658 C83.12277273 418.53558534 83.1132868 445.80816017 83.12011719 473.08081055 C83.12668973 499.57757537 83.12069145 526.07428857 83.09765625 552.57104492 C83.09695135 553.38763587 83.09624645 554.20422683 83.09552019 555.04556296 C83.08842748 563.24602483 83.08107901 571.44648646 83.07354315 579.64694794 C83.05819723 596.35257736 83.04455849 613.05820802 83.0319519 629.76383972 C83.03137016 630.53195571 83.03078841 631.3000717 83.03018903 632.09146394 C82.99152943 683.39430132 82.99279198 734.69715094 83 786 C75.83120031 787.82012857 68.77875864 788.99267846 61.4375 789.9375 C60.77837616 790.02270905 60.11925232 790.10791809 59.44015503 790.19570923 C47.67472388 791.69980321 35.88757833 792.77830511 24.0625 793.6875 C22.89834061 793.7783638 22.89834061 793.7783638 21.71066284 793.87106323 C-0.71681687 795.59858411 -23.13489283 796.20878383 -45.625 796.1875 C-46.81932648 796.18689575 -48.01365295 796.1862915 -49.24417114 796.18566895 C-154.91671545 796.04164227 -154.91671545 796.04164227 -175 786 C-175.00135653 784.9376732 -175.00271306 783.8753464 -175.00411069 782.78082788 C-175.06407364 735.92391466 -175.12649518 689.06700554 -175.20132446 642.21011353 C-175.2030249 641.14467861 -175.2030249 641.14467861 -175.20475969 640.05771977 C-175.22941575 624.61821528 -175.25450884 609.17871153 -175.28005161 593.73920848 C-175.29257658 586.16679667 -175.30500506 578.59438471 -175.31738281 571.02197266 C-175.3192328 569.8917021 -175.3192328 569.8917021 -175.32112016 568.7385978 C-175.36099263 544.35046319 -175.39450348 519.96232493 -175.42468691 495.57417656 C-175.45575898 470.49532546 -175.49330578 445.41649208 -175.53890612 420.33766298 C-175.54535576 416.78890704 -175.551732 413.24015096 -175.55806351 409.69139481 C-175.55931181 408.99300397 -175.56056012 408.29461313 -175.56184625 407.57505894 C-175.58168713 396.36933898 -175.59477801 385.163621 -175.60529328 373.95788884 C-175.61603129 362.67028107 -175.63416028 351.38270267 -175.65916704 340.09511594 C-175.67248451 333.9882292 -175.68268959 327.88138095 -175.68421364 321.77447891 C-175.68568391 316.16897313 -175.69642352 310.5635598 -175.71413441 304.95808251 C-175.71893259 302.94425072 -175.72050477 300.9304077 -175.71827881 298.91657142 C-175.70209208 281.37620637 -176.21359383 263.48142761 -180.125 246.3125 C-180.33527832 245.37317627 -180.54555664 244.43385254 -180.76220703 243.46606445 C-183.98052858 229.97754434 -189.10208305 216.77545906 -198 206 C-198.54140625 205.29875 -199.0828125 204.5975 -199.640625 203.875 C-209.75121942 191.40211716 -224.40129358 185.21137605 -240 183 C-263.4171235 180.72756908 -285.80791203 190.22503513 -306 201 C-306.60054199 201.31694824 -307.20108398 201.63389648 -307.81982422 201.96044922 C-321.6744425 209.33301713 -334.10316675 218.80512165 -346 229 C-346.72556561 229.40069765 -347.45113123 229.8013953 -348.19868368 230.21423531 C-351.74183616 232.52955735 -354.42989132 234.78883037 -355.52420552 239.03313398 C-356.41127341 245.58390876 -356.19232566 252.20957647 -356.12025452 258.80419922 C-356.12831052 261.07563591 -356.14031589 263.34706145 -356.15593141 265.61845875 C-356.18740516 271.86029438 -356.16280365 278.10084838 -356.12913358 284.34262633 C-356.10534142 290.38214738 -356.12382314 296.42144217 -356.14130635 302.46094789 C-356.17560516 314.81355342 -356.16811678 327.16580279 -356.13676643 339.5184021 C-356.10586505 351.74797405 -356.09356501 363.97733205 -356.10607719 376.2069397 C-356.10684488 376.96749416 -356.10761257 377.72804863 -356.10840353 378.5116502 C-356.11239898 382.3741635 -356.11672647 386.23667636 -356.12118178 390.09918916 C-356.15213699 417.45339019 -356.14143222 444.80743196 -356.10620117 472.16162109 C-356.07207131 498.73488902 -356.05682831 525.30805818 -356.06713867 551.88134766 C-356.06744899 552.70053214 -356.06775931 553.51971663 -356.06807904 554.36372489 C-356.07121627 562.59035465 -356.07473729 570.81698421 -356.0785395 579.04361369 C-356.08627623 595.8020244 -356.09145141 612.56043557 -356.09507751 629.31884766 C-356.09533233 630.47462031 -356.09533233 630.47462031 -356.0955923 631.6537419 C-356.10664185 683.10251589 -356.05779346 734.55126262 -356 786 C-358.40658616 786.48722826 -360.81346453 786.97292497 -363.22053528 787.45774841 C-363.89849923 787.59517 -364.57646317 787.73259158 -365.27497149 787.87417746 C-369.89324401 788.80273635 -374.45884485 789.5595434 -379.13671875 790.09765625 C-380.15615318 790.21646652 -380.15615318 790.21646652 -381.19618225 790.337677 C-383.35918083 790.58683174 -385.52312582 790.82561573 -387.6875 791.0625 C-388.81810852 791.18898422 -388.81810852 791.18898422 -389.97155762 791.31802368 C-404.61794026 792.95238645 -419.28182171 794.21805018 -434 795 C-434.78971191 795.04236786 -435.57942383 795.08473572 -436.39306641 795.12838745 C-452.09753986 795.94995865 -467.77552412 796.20234881 -483.5 796.1875 C-484.69521271 796.18689575 -485.89042542 796.1862915 -487.12185669 796.18566895 C-583.83811068 796.05396311 -583.83811068 796.05396311 -614 786 C-614.18850664 707.97905319 -614.36340476 629.95807893 -614.46577454 551.93696594 C-614.46805248 550.20526671 -614.46805248 550.20526671 -614.47037644 548.43858365 C-614.5032973 523.34981091 -614.53376946 498.26103575 -614.56171862 473.17225699 C-614.5754395 460.86898785 -614.58970157 448.56571936 -614.60424805 436.26245117 C-614.6056864 435.03811851 -614.60712475 433.81378585 -614.60860668 432.55235221 C-614.65549384 392.85766393 -614.73812732 353.16314773 -614.83926943 313.46856373 C-614.94300479 272.68220816 -615.01073446 231.89594784 -615.03306489 191.10946257 C-615.03623466 185.35060656 -615.03981667 179.59175088 -615.04364967 173.83289528 C-615.04476215 172.13273267 -615.04476215 172.13273267 -615.04589711 170.39822334 C-615.05890349 152.14205429 -615.10994196 133.88617951 -615.17515237 115.63013054 C-615.23987789 97.28312183 -615.2646565 78.93640527 -615.24851515 60.58928635 C-615.24013928 49.6844367 -615.26253506 38.78065511 -615.32877297 27.87599804 C-615.36999422 20.59315426 -615.3713214 13.31101056 -615.34014995 6.02811861 C-615.3235263 1.8768907 -615.3243045 -2.27231665 -615.37371501 -6.42332856 C-615.41836913 -10.20348346 -615.41195934 -13.98005034 -615.36553973 -17.7601526 C-615.35402818 -19.75330034 -615.3963398 -21.74653972 -615.44109324 -23.73921821 C-615.28997473 -31.07574894 -613.87696911 -35.19504588 -608.76574737 -40.30104893 C-603.15446586 -45.51926543 -598.88737975 -46.55328103 -591.38842773 -46.29638672 C-589.73226692 -46.30602448 -589.73226692 -46.30602448 -588.04264832 -46.31585693 C-584.42060634 -46.32343943 -580.804833 -46.25271807 -577.18359375 -46.1796875 C-574.64170658 -46.16675952 -572.09979314 -46.15830099 -569.55787659 -46.15408325 C-564.2370925 -46.13424383 -558.91839054 -46.08038106 -553.59838867 -45.99462891 C-546.82611191 -45.88561338 -540.05504916 -45.84006084 -533.28199673 -45.81632805 C-526.76985786 -45.7933048 -520.25800739 -45.73690102 -513.74609375 -45.6796875 C-512.52626738 -45.67101528 -511.306441 -45.66234306 -510.04965019 -45.65340805 C-467.42060219 -45.28262599 -432.13043165 -34.08454188 -401.60546875 -3.609375 C-385.96764221 12.93221384 -375.17862866 34.58527232 -368 56 C-364.59926235 53.08917217 -361.20042553 50.17635407 -357.81640625 47.24609375 C-331.97833218 24.90927455 -304.84449194 4.71580092 -275 -12 C-274.22672363 -12.43521973 -273.45344727 -12.87043945 -272.65673828 -13.31884766 C-239.55840193 -31.77025723 -203.61406065 -43.60813565 -166 -48 C-164.87851562 -48.13277344 -163.75703125 -48.26554687 -162.6015625 -48.40234375 C-105.05322549 -53.91550464 -43.9001836 -38.48301351 0 0 Z " fill="#104D33" transform="translate(9496,7318)"/>
<path d="M0 0 C2.92347121 -0.00615661 5.84690634 -0.01602508 8.77036285 -0.02705765 C39.90290842 -0.13740885 71.07997139 0.34476546 102.04227448 3.93122482 C102.77785583 4.0135939 103.51343719 4.09596298 104.2713089 4.18082809 C179.60252315 12.66632188 257.92555694 33.67119691 316.47977448 84.18122482 C317.2248526 84.81544357 317.96993073 85.44966232 318.73758698 86.10309982 C331.68286778 97.42473524 344.13211775 109.62615493 354.27811432 123.54401779 C355.45080181 125.14175089 356.66219357 126.71084692 357.87430573 128.27888107 C400.21581385 183.88213384 414.51848225 263.95284414 405.47977448 332.18122482 C397.34260799 387.80985388 369.70991674 446.6456896 325.72196198 483.30231857 C323.98641584 484.75666995 322.29065036 486.25856479 320.61258698 487.77888107 C306.17060271 500.77251 289.61988614 511.1211658 272.47977448 520.18122482 C271.40598541 520.75485764 270.33219635 521.32849045 269.22586823 521.91950607 C266.47977448 523.18122482 266.47977448 523.18122482 263.47977448 523.18122482 C263.47977448 523.84122482 263.47977448 524.50122482 263.47977448 525.18122482 C264.24676666 525.25341232 265.01375885 525.32559982 265.80399323 525.39997482 C270.94253854 526.49212048 275.5004035 528.56086522 280.29227448 530.68122482 C281.82706451 531.35725754 281.82706451 531.35725754 283.39286041 532.04694748 C309.42648421 543.65499588 333.48013016 558.81990264 354.40946198 578.25934982 C356.30748511 580.02128828 358.25227225 581.69736311 360.22977448 583.36872482 C369.3379755 591.33147257 377.88427257 600.01440796 385.36649323 609.52106857 C386.76251987 611.27835904 388.20278575 613.00149071 389.68680573 614.68513107 C423.50443435 653.21367314 444.96354949 704.0666064 454.79227448 753.93122482 C455.15615265 755.75762497 455.15615265 755.75762497 455.5273819 757.62092209 C458.95820036 775.84949486 459.85964899 793.97496264 459.79227448 812.49372482 C459.78954025 814.06303253 459.78954025 814.06303253 459.78675079 815.66404343 C459.73517679 833.3334307 458.96747081 850.6654156 456.47977448 868.18122482 C456.30816803 869.39181564 456.13656158 870.60240646 455.95975494 871.84968185 C445.54148566 942.59894753 413.81634656 1011.34086744 356.47977448 1056.18122482 C355.8621524 1056.66994064 355.24453033 1057.15865646 354.60819244 1057.66218185 C290.96008252 1107.93350585 211.13474266 1129.79838958 131.60477448 1138.43122482 C130.91950684 1138.50826645 130.2342392 1138.58530807 129.52820587 1138.6646843 C96.28180765 1142.34109149 62.78925655 1142.5221873 29.38442612 1142.43917465 C25.89560952 1142.4310283 22.40679973 1142.42611098 18.91797638 1142.42182541 C-74.48129376 1142.29138483 -167.86213775 1140.27556277 -261.23566818 1138.25329208 C-265.38508015 1138.16344815 -269.53450176 1138.07407174 -273.68393326 1137.98513412 C-285.53594976 1137.73103223 -297.38784929 1137.47236972 -309.23960114 1137.20619774 C-312.87738183 1137.12461544 -316.51519574 1137.04489279 -320.15305328 1136.96681404 C-324.37239093 1136.8761259 -328.59161758 1136.78137559 -332.81079209 1136.68339872 C-334.3431421 1136.64847442 -335.8755251 1136.61496302 -337.40793979 1136.58300257 C-339.49564532 1136.53921586 -341.58316609 1136.49019553 -343.67072296 1136.43987656 C-344.8323593 1136.41389861 -345.99399565 1136.38792067 -347.19083309 1136.36115551 C-354.93148529 1135.94282667 -359.22631014 1134.93063128 -364.83039358 1129.32008354 C-370.86641896 1122.45599342 -370.03706825 1114.24426695 -369.90447807 1105.58561325 C-369.915963 1103.68988428 -369.9322646 1101.7941795 -369.9529261 1099.89852834 C-369.99576047 1094.68550926 -369.97013905 1089.47473109 -369.93336862 1084.26174858 C-369.90547129 1078.59215432 -369.94132088 1072.92290438 -369.96904528 1067.25335884 C-370.00879415 1057.31563021 -370.00755722 1047.37855873 -369.97952652 1037.44079971 C-369.94953741 1026.77980494 -369.94289419 1016.11925622 -369.96563721 1005.45827103 C-369.96705811 1004.78446613 -369.968479 1004.11066123 -369.96994296 1003.416438 C-369.97580906 1000.67205364 -369.98184486 997.92766973 -369.98809599 995.18328622 C-370.0462569 969.63135774 -370.05023422 944.07968738 -370.01947403 918.52772141 C-370.01856328 917.77081465 -370.01765253 917.01390789 -370.01671418 916.23406457 C-370.01580196 915.47594561 -370.01488973 914.71782664 -370.01394986 913.93673438 C-369.98619707 890.84199153 -369.97902847 867.74735536 -369.99219894 844.65259933 C-369.99305122 843.10618819 -369.99389994 841.55977705 -369.99474511 840.01336591 C-369.99816024 833.79901023 -370.00166557 827.58465461 -370.00530252 821.37029906 C-370.0153897 803.99850863 -370.02166624 786.62671782 -370.02495003 769.25492477 C-370.02517518 768.06831074 -370.02517518 768.06831074 -370.02540489 766.8577247 C-370.02990707 741.64987815 -370.01751051 716.44206875 -369.99360466 691.23423386 C-369.99283192 690.41661776 -369.99205918 689.59900167 -369.99126303 688.75660933 C-369.97866853 675.47897888 -369.96525447 662.20134925 -369.95177112 648.92371969 C-369.89835115 596.26270697 -369.9008306 543.60200185 -369.95430756 490.94099045 C-369.96774061 477.67006588 -369.98106214 464.39914124 -369.99360466 451.12821579 C-369.99437959 450.31108117 -369.99515452 449.49394654 -369.99595293 448.65205026 C-370.01967024 423.47053689 -370.02972812 398.28904909 -370.02495003 373.10752487 C-370.0248006 372.31702945 -370.02465117 371.52653403 -370.02449722 370.71208421 C-370.02105998 353.35960446 -370.01409001 336.00712742 -370.0039345 318.65465036 C-370.00031392 312.44584406 -369.99687004 306.23703767 -369.99347667 300.02823125 C-369.9926254 298.48363613 -369.99175937 296.93904101 -369.99087852 295.39444591 C-369.9777478 272.3057139 -369.98893211 249.21710209 -370.01671418 226.12838507 C-370.01762493 225.37147832 -370.01853568 224.61457156 -370.01947403 223.83472824 C-370.02038354 223.07921724 -370.02129304 222.32370623 -370.02223011 221.54530095 C-370.05256598 196.06718456 -370.04141956 170.58937783 -369.98338585 145.11130571 C-369.97730993 142.37559701 -369.97140619 139.63988799 -369.96563721 136.90417862 C-369.96420493 136.2327873 -369.96277266 135.56139598 -369.96129698 134.86965947 C-369.93827851 123.59077922 -369.9586803 112.3122863 -369.99049376 101.03341829 C-370.01511028 91.22584855 -369.99990045 81.41886837 -369.95194131 71.61138619 C-369.92570838 66.0185925 -369.91695795 60.42725865 -369.95640711 54.83450961 C-369.99193126 49.74644973 -369.97687456 44.6611447 -369.92141985 39.57328591 C-369.91033841 37.74415721 -369.91767845 35.91480061 -369.94568517 34.08585277 C-370.15898897 19.09270723 -370.15898897 19.09270723 -364.71755305 13.05010279 C-360.27413309 8.70229595 -356.65662989 5.98682226 -350.34083557 6.04618454 C-348.9446336 6.11302948 -348.9446336 6.11302948 -347.52022552 6.18122482 C-345.07620445 6.10323362 -342.63254049 6.0136431 -340.18923187 5.91584396 C-337.30792714 5.83908448 -334.4262802 5.77908819 -331.54463959 5.71638107 C-329.94606523 5.67877236 -328.3474987 5.64082952 -326.74893951 5.60258102 C-322.41760703 5.49992329 -318.08617888 5.40202109 -313.75471592 5.30504608 C-309.15816055 5.20137543 -304.56170378 5.09349385 -299.96523285 4.98615646 C-292.2012318 4.80544982 -284.43716929 4.62761665 -276.67305756 4.45173264 C-268.81655665 4.27374554 -260.96011051 4.09358312 -253.10372162 3.91071701 C-252.14798166 3.88847122 -251.19224169 3.86622543 -250.20753992 3.84330553 C-249.25408957 3.82111108 -248.30063922 3.79891662 -247.31829643 3.77604961 C-206.60781398 2.8284258 -165.89738526 1.90718458 -125.18141937 1.22587967 C-122.60879676 1.18271105 -120.03618939 1.13872814 -117.4635849 1.09449387 C-78.31122829 0.42423061 -39.15806388 0.06466201 0 0 Z M-108.52022552 187.18122482 C-108.52022552 273.97122482 -108.52022552 360.76122482 -108.52022552 450.18122482 C10.04777954 459.52200265 10.04777954 459.52200265 116.60477448 412.55622482 C141.29300167 387.70296037 150.07923136 352.26197798 150.66727448 318.11872482 C150.30763214 283.05359734 140.73637904 249.41241998 116.22977448 223.49372482 C83.9033059 192.52837072 38.82722079 188.00756632 -3.81319427 187.76716232 C-5.98152064 187.74835345 -8.14984043 187.72877379 -10.31815338 187.70847702 C-15.97099952 187.65773196 -21.62387022 187.61787376 -27.27681732 187.58033371 C-31.83001065 187.54833856 -36.38312285 187.50877751 -40.93625164 187.46875191 C-63.46493277 187.27085963 -85.98983743 187.18122482 -108.52022552 187.18122482 Z M-108.52022552 638.18122482 C-108.52022552 743.45122482 -108.52022552 848.72122482 -108.52022552 957.18122482 C-96.93098332 957.18122482 -85.35012405 957.18018771 -73.76314545 957.04523849 C-72.41822118 957.03034205 -71.07329623 957.01550757 -69.72837067 957.00072861 C-57.58811699 956.86551775 -45.44805588 956.71221675 -33.30807781 956.55435848 C-24.38849133 956.43860676 -15.4688901 956.3316393 -6.54906386 956.23608989 C-0.21106493 956.16740969 6.12675309 956.08815907 12.46453208 956.00155622 C16.2202718 955.95052828 19.97593304 955.90380371 23.73185921 955.86880684 C45.06102562 955.66545825 66.25146828 954.89328285 86.97977448 949.36872482 C88.47770538 948.97862228 88.47770538 948.97862228 90.00589752 948.58063889 C98.12540138 946.40177065 105.88051024 943.81440053 113.47977448 940.18122482 C114.22565826 939.82544357 114.97154205 939.46966232 115.74002838 939.10309982 C126.6050303 933.83202552 136.28078372 928.02379603 145.47977448 920.18122482 C146.4207901 919.40263107 147.36180573 918.62403732 148.33133698 917.82184982 C177.95217653 892.28952052 191.1641816 852.97818391 194.30106354 815.02595139 C197.3449438 766.57336564 185.87872517 720.79385014 153.91727448 683.74372482 C125.26807798 652.92256758 84.02823609 641.56026329 43.47977448 638.18122482 C-6.68022552 638.18122482 -56.84022552 638.18122482 -108.52022552 638.18122482 Z " fill="#104D33" transform="translate(6140.520225524902,6971.818775177002)"/>
<path d="M0 0 C9.67316042 8.99294732 16.94810047 19.4105616 23.16796875 31.0078125 C23.50393066 31.63042969 23.83989258 32.25304688 24.18603516 32.89453125 C34.77960435 52.93502295 40.29945691 74.91125407 45.58203125 96.8046875 C46.10424739 98.95444284 46.62678853 101.10411925 47.14962769 103.25372314 C48.82972593 110.16999117 50.49942214 117.08875013 52.16796875 124.0078125 C52.72727568 126.32487444 53.28660181 128.64193174 53.84594727 130.95898438 C57.5358608 146.25082018 61.20857315 161.54676479 64.8753193 176.84417039 C65.99725974 181.52474838 67.11982486 186.20517624 68.2427063 190.88552856 C75.3046903 220.32176403 82.35361095 249.76108294 89.375 279.20703125 C89.66023718 280.40313648 89.94547436 281.59924171 90.23935509 282.83159256 C93.0140928 294.46780597 95.78708088 306.10443188 98.55461407 317.74236107 C105.55222778 347.17232872 105.55222778 347.17232872 112.73046875 376.55859375 C127.9369753 438.02994551 138.54384078 500.16895922 147.81773376 562.76931 C148.19647878 565.32525939 148.57622075 567.88105899 148.95617676 570.43682861 C150.05488275 577.83399446 151.14893259 585.23162168 152.21376801 592.63374901 C152.65091123 595.6601632 153.09615992 598.68534893 153.54319763 601.7103157 C153.74867928 603.11416502 153.95049216 604.51855707 154.14833069 605.92350388 C154.42016349 607.85188868 154.70586919 609.77830252 154.9921875 611.70458984 C155.2255481 613.32220718 155.2255481 613.32220718 155.46362305 614.97250366 C156.24649873 618.34622974 157.42963571 621.01794121 159.16796875 624.0078125 C161.8767621 625.36220918 164.17730143 625.07282701 167.16796875 625.0078125 C167.32107262 624.32307704 167.47417648 623.63834158 167.63191986 622.93285656 C200.19213677 477.31288238 200.19213677 477.31288238 213.66796875 417.2578125 C214.02140854 415.68270212 214.02140854 415.68270212 214.38198853 414.07577133 C216.28663044 405.5878287 218.19135287 397.09990413 220.09620667 388.61200905 C225.84977025 362.97434538 231.59563875 337.33495771 237.34152222 311.6955719 C245.45520749 275.49078681 253.5715697 239.28660407 261.69287109 203.08352661 C269.99179863 166.08861261 278.2897376 129.0934767 286.5836792 92.09744453 C287.99800276 85.78872132 289.41242388 79.48002003 290.82714844 73.17138672 C292.14649351 67.28804092 293.46550155 61.40461966 294.78427124 55.52114487 C295.28629218 53.28171116 295.78842666 51.04230291 296.29067993 48.8029213 C298.76093717 37.78841917 301.22483045 26.77265974 303.65625 15.74951172 C303.84699097 14.88592387 304.03773193 14.02233603 304.23425293 13.13257885 C305.10856732 9.17378963 305.9805211 5.21451854 306.84716797 1.25404358 C307.14540146 -0.09897161 307.44373437 -1.45196488 307.7421875 -2.80493164 C307.99572998 -3.96174942 308.24927246 -5.1185672 308.51049805 -6.31044006 C309.16796875 -8.9921875 309.16796875 -8.9921875 310.16796875 -10.9921875 C313.13009881 -12.10511393 316.27039983 -12.68057237 319.35546875 -13.3671875 C320.81641968 -13.6926355 320.81641968 -13.6926355 322.30688477 -14.0246582 C387.42621722 -27.91088425 461.15615084 -25.90532047 525.93408203 -10.72167969 C528.97014931 -10.03681112 532.0084859 -9.46199786 535.0703125 -8.90625 C543.37979836 -7.20508954 549.32771597 -5.19025191 554.2824707 2.02441406 C554.73968506 2.78206055 555.19689941 3.53970703 555.66796875 4.3203125 C556.31995239 5.35816895 556.31995239 5.35816895 556.98510742 6.41699219 C559.64730946 11.80465414 558.99140626 16.11371489 557.51538086 21.75439453 C557.33010802 22.49893355 557.14483519 23.24347258 556.95394802 24.01057339 C556.36974938 26.34596313 555.76972041 28.67689147 555.16796875 31.0078125 C554.8099821 32.42387062 554.45275229 33.84012033 554.09634399 35.25657654 C552.98334622 39.65884244 551.84412374 44.05414222 550.703125 48.44921875 C550.27373795 50.10865424 549.84448685 51.7681249 549.4153595 53.42762756 C548.26359262 57.87924473 547.10924644 62.33018901 545.95418549 66.78095245 C545.221144 69.60625209 544.48879825 72.43173122 543.75665283 75.25726318 C535.61950787 106.65818302 527.40666694 138.03889742 519.15753174 169.41055298 C518.93770882 170.24655659 518.71788589 171.0825602 518.49140167 171.94389725 C518.04288194 173.64964747 517.59434977 175.35539442 517.14580536 177.06113815 C511.24364117 199.50792889 505.36991707 221.96216128 499.49594879 244.41634369 C498.60384913 247.82650371 497.71169337 251.23664906 496.81951904 254.64678955 C494.10916954 265.00652632 491.3989527 275.36629778 488.68891525 285.72611618 C484.84021825 300.4386964 480.99066062 315.15105127 477.140625 329.86328125 C476.70872266 331.51372153 476.70872266 331.51372153 476.26809502 333.19750404 C474.81571479 338.74750698 473.36332023 344.29750617 471.91091919 349.84750366 C469.28833438 359.86910212 466.66587715 369.89073397 464.04340935 379.91236305 C462.58493428 385.48584755 461.12645111 391.05932992 459.66796875 396.6328125 C459.08463538 398.86197916 458.50130204 401.09114582 457.91796875 403.3203125 C456.75130208 407.77864583 455.58463542 412.23697917 454.41796875 416.6953125 C454.12921686 417.79875724 453.84046497 418.90220198 453.54296303 420.03908443 C452.95964881 422.268178 452.37633455 424.49727155 451.79302025 426.72636509 C450.33439405 432.30040014 448.87576862 437.8744354 447.41714478 443.44847107 C444.79564281 453.46636644 442.17413554 463.48426041 439.55259895 473.50214672 C438.09886419 479.05741972 436.64513401 484.61269392 435.19140625 490.16796875 C434.90338512 491.26861223 434.615364 492.36925571 434.31861496 493.50325203 C430.16556143 509.373762 426.01277095 525.24434079 421.8601265 541.11495781 C402.58545318 614.77888361 402.58545318 614.77888361 394.29296875 646.4453125 C394.06078392 647.33199301 393.82859909 648.21867352 393.58937836 649.13222313 C391.10538126 658.61816716 388.62053889 668.10388853 386.13378906 677.58911133 C385.25446841 680.94349884 384.37524473 684.29791176 383.49609375 687.65234375 C383.27970497 688.47795115 383.06331619 689.30355854 382.84037018 690.15418434 C379.57338328 702.62105398 376.32172254 715.09186579 373.0763607 727.56438065 C352.65134696 806.04983138 352.65134696 806.04983138 344.16796875 834.0078125 C343.92125427 834.8240509 343.67453979 835.64028931 343.42034912 836.48126221 C329.93432002 881.03607499 313.96293075 924.30213396 293.16796875 966.0078125 C292.68360352 966.98057129 292.19923828 967.95333008 291.70019531 968.95556641 C273.3699154 1005.51204649 250.23847268 1038.53445118 222.41796875 1068.4453125 C221.81629883 1069.0954834 221.21462891 1069.7456543 220.59472656 1070.41552734 C216.91187522 1074.33497521 213.06588351 1077.94471219 208.98486328 1081.44702148 C206.76703916 1083.35222837 204.62710294 1085.335543 202.48046875 1087.3203125 C130.34783094 1151.9685112 27.5138266 1171.92451402 -66.78320312 1167.68481445 C-116.64064437 1164.86262169 -166.48850773 1156.76016487 -214.83203125 1144.3203125 C-215.53348267 1144.1400351 -216.23493408 1143.95975769 -216.9576416 1143.77401733 C-227.02010084 1141.16891602 -236.93627433 1138.1816594 -246.83203125 1135.0078125 C-252.37592804 1076.5037373 -238.63831218 1002.78365454 -200.83203125 956.0078125 C-200.30222656 955.35039063 -199.77242188 954.69296875 -199.2265625 954.015625 C-198.11437725 952.66355666 -196.97727266 951.33199788 -195.83203125 950.0078125 C-189.23362125 951.18022268 -182.85420413 952.80193363 -176.42138672 954.67285156 C-136.75764217 966.1716583 -94.9752108 973.41666547 -53.63818359 973.32348633 C-50.70112579 973.32030611 -47.76506118 973.34399479 -44.828125 973.36914062 C-29.11212295 973.42250789 -13.69104167 972.06806104 1.35546875 967.2578125 C2.17805176 967.00177246 3.00063477 966.74573242 3.84814453 966.48193359 C23.01830016 960.33637066 39.80431267 950.97808896 55.16796875 938.0078125 C56.16054688 937.16992188 57.153125 936.33203125 58.17578125 935.46875 C64.59235235 929.83861101 69.988063 923.77950592 75.16796875 917.0078125 C75.5851416 916.48155273 76.00231445 915.95529297 76.43212891 915.41308594 C95.9707565 890.75633692 106.55516778 861.65791245 115.33154297 831.78515625 C116.52321523 827.82821998 117.83558088 823.9194099 119.16796875 820.0078125 C118.04660522 819.98593872 118.04660522 819.98593872 116.90258789 819.96362305 C67.31180546 818.89271947 15.34687517 811.7570665 -20.80859375 774.2734375 C-41.69699963 750.88487493 -49.98875191 722.82069636 -57.86988068 693.03345871 C-58.88331426 689.21352429 -59.90994767 685.39713615 -60.93505859 681.58032227 C-62.68459498 675.06016425 -64.42682938 668.53809474 -66.1640625 662.01464844 C-68.78959051 652.15709128 -71.43384975 642.30461684 -74.08203125 632.453125 C-74.97113609 629.14472288 -75.86011195 625.83628611 -76.74902344 622.52783203 C-76.97100277 621.70166571 -77.1929821 620.87549938 -77.42168808 620.02429771 C-79.7269864 611.44295003 -82.02692902 602.8601688 -84.32659149 594.27730942 C-90.60896142 570.8303235 -96.90547885 547.38714959 -103.20703125 523.9453125 C-103.46786751 522.97494427 -103.72870377 522.00457603 -103.99744415 521.0048027 C-112.42261323 489.66160621 -120.86682315 458.32357257 -129.32122803 426.98825073 C-137.27077363 397.52369869 -145.19960258 368.05362152 -153.11846924 338.58081055 C-160.76022883 310.13967968 -168.41560727 281.70226698 -176.08701706 253.26911926 C-185.52930701 218.27239112 -194.95219659 183.27049242 -204.35791016 148.26391602 C-204.74085424 146.83865963 -204.74085424 146.83865963 -205.13153458 145.38461018 C-207.23529981 137.55468461 -207.23529981 137.55468461 -208.23875427 133.81974983 C-212.14737961 119.2718131 -216.06027068 104.7250282 -219.97544289 90.17885208 C-221.71281177 83.7235183 -223.44961665 77.26803275 -225.1864233 70.81254768 C-226.57456038 65.65324238 -227.96308414 60.49404179 -229.35250854 55.33508301 C-230.64552056 50.53409979 -231.93754315 45.73285138 -233.22883797 40.93140602 C-233.70073202 39.17747774 -234.17299187 37.42364783 -234.64565849 35.6699276 C-237.12527395 26.46917577 -239.57038775 17.2652539 -241.83203125 8.0078125 C-234.84331338 4.35685714 -227.82552759 1.33067547 -220.39453125 -1.3046875 C-218.77587158 -1.88053589 -218.77587158 -1.88053589 -217.12451172 -2.46801758 C-154.57624608 -24.39099099 -55.688341 -49.77756828 0 0 Z " fill="#104D33" transform="translate(10853.83203125,7295.9921875)"/>
<path d="M0 0 C0.9684082 0.29455078 1.93681641 0.58910156 2.93457031 0.89257812 C50.53189306 15.49182319 95.44148349 39.55067431 134 71 C134.53544434 71.43634766 135.07088867 71.87269531 135.62255859 72.32226562 C151.44083531 85.29200359 166.73933798 99.40719701 180 115 C180.84691406 115.95777344 181.69382813 116.91554687 182.56640625 117.90234375 C201.75877763 139.70605568 217.62484039 163.82292093 232 189 C232.40814941 189.70882324 232.81629883 190.41764648 233.23681641 191.14794922 C279.15995175 271.58808356 292.68406833 370.8846731 269.0859375 514.27734375 C256.48249322 558.80361127 237.49490935 601.95602761 211 640 C210.62697754 640.53753906 210.25395508 641.07507812 209.86962891 641.62890625 C192.25297149 666.93348737 171.80831903 691.93568216 148.3203125 712.015625 C146.55011966 713.5295273 144.79815218 715.06476703 143.0546875 716.609375 C72.22978043 779.0230988 -21.06185121 809.5535494 -179.19961548 814.12109375 C-235.0495633 810.54235147 -289.23940951 797.75865908 -340 774 C-340.92973633 773.56606934 -341.85947266 773.13213867 -342.81738281 772.68505859 C-380.80280032 754.7703326 -414.10711024 730.18798236 -445 702 C-443.60173316 697.84238744 -441.65359853 695.2016447 -438.75 691.9375 C-393.34430463 639.19496021 -364.24012191 568.59181155 -350 501 C-349.65098633 499.35209473 -349.65098633 499.35209473 -349.29492188 497.67089844 C-343.63268437 470.38407583 -339.90021683 442.17835352 -339.796875 414.29296875 C-339.78981537 413.02152512 -339.78275574 411.75008148 -339.77548218 410.44010925 C-339.75594616 406.35590034 -339.75078991 402.27175126 -339.75 398.1875 C-339.74970543 397.49126778 -339.74941086 396.79503555 -339.74910736 396.07770538 C-339.74768271 375.24117965 -339.94376973 354.65590115 -343 334 C-343.1018158 333.2994751 -343.20363159 332.5989502 -343.30853271 331.87719727 C-355.68458826 246.97703883 -387.57455725 162.54713608 -443.98828125 96.796875 C-445 95 -445 95 -444.92578125 93.01171875 C-443.69370235 90.3344165 -442.11179346 88.9855518 -439.875 87.0625 C-438.50794922 85.87914063 -438.50794922 85.87914063 -437.11328125 84.671875 C-436.61135254 84.24326172 -436.10942383 83.81464844 -435.59228516 83.37304688 C-433.93161979 81.94103491 -432.29868084 80.48162343 -430.66796875 79.015625 C-420.93421504 70.32698037 -410.64638854 62.53390063 -400 55 C-399.04988037 54.32590088 -399.04988037 54.32590088 -398.08056641 53.63818359 C-354.78748872 23.19643926 -304.58746577 2.34307868 -253 -9 C-252.00323242 -9.21994629 -251.00646484 -9.43989258 -249.97949219 -9.66650391 C-178.6427343 -25.07569582 -102.24853294 -23.9688124 0 0 Z " fill="#6FBE44" transform="translate(8467,7298)"/>
<path d="M0 0 C0.93908203 0.42506836 1.87816406 0.85013672 2.84570312 1.28808594 C22.4365424 10.18631745 41.40879765 20.56922261 59 33 C60.10934836 33.77217369 61.218725 34.54430676 62.328125 35.31640625 C70.78947988 41.24581371 78.98884496 47.4761197 87 54 C87.55139648 54.44553223 88.10279297 54.89106445 88.67089844 55.35009766 C97.92853328 62.89466282 106.41725336 71.209848 114.875 79.625 C115.40920563 80.1539386 115.94341125 80.6828772 116.49380493 81.22784424 C123.47077467 88.15156695 129.86803842 95.30320083 136 103 C136.93481406 104.10179887 137.87617671 105.19812703 138.828125 106.28515625 C146.5047168 115.08847362 153.31324311 124.43020054 160 134 C160.43666992 134.62068359 160.87333984 135.24136719 161.32324219 135.88085938 C206.62975617 200.62498165 233.866387 282.93743323 234.203125 362.17578125 C234.21013931 363.29176193 234.21715363 364.40774261 234.22438049 365.55754089 C234.24178694 369.14256886 234.24823381 372.72743131 234.25 376.3125 C234.25101212 378.15521484 234.25101212 378.15521484 234.25204468 380.03515625 C234.23531753 399.22479474 233.62440331 417.97503066 231 437 C230.83902832 438.23298828 230.67805664 439.46597656 230.51220703 440.73632812 C222.04117734 504.24056989 198.85532454 567.45526019 162 620 C161.4426416 620.80195801 161.4426416 620.80195801 160.87402344 621.62011719 C141.22840813 649.84362176 117.9831595 678.81861597 90.703125 699.90625 C88.65885302 701.48967454 86.69413536 703.09887804 84.734375 704.78125 C66.92725771 719.93083895 46.79622003 732.57348005 26.29931641 743.74316406 C24.18153089 744.90077288 22.07998748 746.08313443 19.98046875 747.2734375 C-33.23969771 776.98747537 -94.70187211 790.53149392 -155 795 C-156.39750488 795.10586426 -156.39750488 795.10586426 -157.82324219 795.21386719 C-247.29019184 801.62617416 -340.20496971 785.43557798 -468 706 C-469.00289062 705.21109375 -470.00578125 704.4221875 -471.0390625 703.609375 C-477.23347922 698.64670109 -483.06320955 693.34097072 -488.85546875 687.921875 C-491.64932631 685.31098405 -494.50441326 682.77646481 -497.375 680.25 C-501.00241039 677.003497 -504.22852926 673.60603987 -507.36328125 669.88671875 C-508.95615725 668.0505395 -510.62512156 666.37330967 -512.375 664.6875 C-516.49582292 660.62137827 -520.0605069 656.15129231 -523.67529297 651.63671875 C-525.09023922 649.8885065 -526.52912252 648.16216965 -527.97265625 646.4375 C-547.75249686 622.6901027 -563.13549446 596.54658338 -577 569 C-577.36931641 568.27603027 -577.73863281 567.55206055 -578.11914062 566.80615234 C-601.90972204 519.91869193 -613.89049406 466.14705498 -618 414 C-618.05784668 413.2972998 -618.11569336 412.59459961 -618.17529297 411.87060547 C-625.72544621 315.8245908 -601.9949955 216.65681175 -527.25 109.0625 C-526.00403469 107.63365913 -524.75786434 106.20499204 -523.50830078 104.77929688 C-522.37110786 103.43778474 -521.26525013 102.06961831 -520.17529297 100.68945312 C-514.10936903 93.04056365 -507.45506993 86.14814762 -500.53515625 79.27441406 C-498.62785668 77.37784061 -496.73149941 75.47079695 -494.8359375 73.5625 C-487.86339006 66.58201304 -480.77417187 60.08832295 -473 54 C-471.7796754 52.99959255 -470.56186873 51.99609832 -469.34765625 50.98828125 C-401.78116624 -4.32652992 -317.15248252 -31.61550838 -231 -38 C-230.06833008 -38.07057617 -229.13666016 -38.14115234 -228.17675781 -38.21386719 C-150.81623321 -43.75847817 -70.63914386 -32.43534391 0 0 Z M-284.28955078 161.09619141 C-285.79509353 161.89172655 -287.31639234 162.65729081 -288.83984375 163.41796875 C-302.82403185 170.58880806 -315.29248969 180.6065198 -327 191 C-327.99 191.86753906 -328.98 192.73507812 -330 193.62890625 C-335.42694664 198.45859382 -340.3700965 203.40974534 -345 209 C-345.73476563 209.84691406 -346.46953125 210.69382813 -347.2265625 211.56640625 C-358.9727686 225.27031336 -368.71583698 239.97642245 -377 256 C-377.40959961 256.77730469 -377.81919922 257.55460937 -378.24121094 258.35546875 C-388.90677848 278.77074714 -396.13478055 300.55108476 -400.5 323.125 C-400.73106445 324.31915527 -400.96212891 325.51331055 -401.20019531 326.74365234 C-404.26319675 343.76678251 -405.38725394 360.78532731 -405.3125 378.0625 C-405.31067719 378.9477536 -405.30885437 379.8330072 -405.30697632 380.74508667 C-405.09330035 442.81342995 -385.68809156 504.55465993 -343.07421875 550.73828125 C-341.19878414 552.78324667 -339.40967467 554.87619475 -337.625 557 C-325.93108517 570.35681098 -311.09574154 580.83888988 -296 590 C-295.38817871 590.37511719 -294.77635742 590.75023438 -294.14599609 591.13671875 C-267.12649441 607.54866794 -234.62029527 617.13830949 -203 618 C-202.29552734 618.02046387 -201.59105469 618.04092773 -200.86523438 618.06201172 C-148.37884158 619.38180672 -98.09655045 602.91635876 -59.25390625 567.06640625 C-57.2536994 565.23259442 -55.20656762 563.48962633 -53.125 561.75 C-32.98799831 544.07957884 -17.17022851 520.15225653 -5.93554688 496.00244141 C-4.98304026 493.96369943 -3.99984239 491.94156192 -3.015625 489.91796875 C23.41423459 434.3813217 25.56969162 365.08646792 11 306 C10.77973145 305.1037793 10.55946289 304.20755859 10.33251953 303.28417969 C3.63921651 276.7345638 -7.75568465 250.14531154 -24 228 C-24.69351563 227.03578125 -25.38703125 226.0715625 -26.1015625 225.078125 C-39.234674 207.1651178 -54.04657315 191.15066521 -72 178 C-73.05832031 177.22011719 -74.11664062 176.44023437 -75.20703125 175.63671875 C-135.46170707 132.61889224 -218.75513514 126.24261712 -284.28955078 161.09619141 Z " fill="#104D33" transform="translate(7842,7317)"/>
<path d="M0 0 C1.13815659 -0.00481888 2.27631317 -0.00963776 3.44895935 -0.01460266 C7.19183586 -0.01712441 10.92864803 0.05857681 14.6706543 0.13598633 C17.29646054 0.15145657 19.92229764 0.16230906 22.54814148 0.16877747 C28.05047327 0.18988819 33.55111219 0.25099362 39.05273438 0.34082031 C46.73739867 0.46621814 54.42125115 0.51867743 62.10677397 0.55650556 C68.14901282 0.58909551 74.19108968 0.64286397 80.2331543 0.69848633 C81.49079401 0.7098229 82.74843372 0.72115948 84.04418373 0.73283958 C103.29557915 0.93435443 122.61619947 1.38916174 141.49487305 5.53051758 C142.49631348 5.74667725 143.49775391 5.96283691 144.52954102 6.18554688 C170.13312641 11.95406551 192.83150912 24.89985581 207.30737305 47.40551758 C228.65255778 83.64565229 229.50874715 126.09744833 229.44324056 167.02165594 C229.43876296 171.24097728 229.44607198 175.46028264 229.45179707 179.67960024 C229.46023956 187.04947602 229.46146836 194.41932435 229.45778465 201.78920364 C229.45236042 212.74858864 229.45852231 223.7079464 229.46707344 234.66732834 C229.481204 253.11341979 229.48658585 271.55950358 229.4873333 290.00559998 C229.48851485 315.19741618 229.50374458 340.38921068 229.52282847 365.58101898 C229.53172484 377.33396279 229.53999525 389.08690704 229.54815006 400.83985138 C229.54896782 402.01613014 229.54978557 403.1924089 229.5506281 404.40433247 C229.56994123 432.36403537 229.58349781 460.32374046 229.59570312 488.28344727 C229.59623992 489.50590258 229.59677671 490.7283579 229.59732977 491.98785732 C229.60983125 520.5236833 229.62061304 549.05950955 229.62939453 577.59533691 C229.6324649 587.5037435 229.63555713 597.41215007 229.63867188 607.32055664 C229.63905369 608.54355848 229.6394355 609.76656032 229.63982889 611.02662282 C229.64859388 638.95626158 229.65975326 666.88589569 229.67980289 694.81552887 C229.68064556 695.98970261 229.68148822 697.16387636 229.68235642 698.37363112 C229.69083977 710.0963578 229.69983498 721.81908398 229.7095482 733.54180969 C229.7143094 739.30890432 229.71892491 745.07599905 229.72343636 750.84309387 C229.72476818 752.54545482 229.72476818 752.54545482 229.7261269 754.28220689 C229.74004694 772.53289282 229.7426999 790.78356389 229.7407567 809.03425433 C229.73896104 827.37042687 229.74761835 845.7065695 229.7670651 864.04273206 C229.77826246 874.93049883 229.78107434 885.81819308 229.77186875 896.70596211 C229.76653078 903.98426231 229.77207937 911.26250243 229.78634549 918.54079045 C229.79415178 922.68347526 229.79732391 926.8260143 229.78712624 930.96869725 C229.48948026 970.53733351 229.48948026 970.53733351 247.86987305 1004.59301758 C263.19770499 1018.77126212 283.64464935 1021.49447769 303.7019043 1021.69458008 C304.92648849 1021.71394623 306.15107269 1021.73331238 307.4127655 1021.75326538 C311.2734001 1021.81241411 315.13406558 1021.85918499 318.99487305 1021.90551758 C321.63355698 1021.94375703 324.27222922 1021.98281209 326.91088867 1022.02270508 C333.33461203 1022.11806139 339.75840747 1022.20329247 346.18237305 1022.28051758 C355.14780358 1050.76701705 355.14780358 1050.76701705 357.43237305 1061.96801758 C357.78658325 1063.66015381 357.78658325 1063.66015381 358.14794922 1065.38647461 C360.93153655 1079.22585372 362.7403652 1093.24269335 364.18237305 1107.28051758 C364.28767334 1108.29750732 364.39297363 1109.31449707 364.50146484 1110.36230469 C365.48858242 1121.70669859 365.36844788 1133.09576099 365.36767578 1144.47412109 C365.36986176 1148.07442057 365.38807125 1151.67441267 365.40698242 1155.2746582 C365.43710674 1167.77312591 365.09763915 1179.91651267 363.18237305 1192.28051758 C363.05137207 1193.25150391 362.92037109 1194.22249023 362.78540039 1195.22290039 C362.36987305 1197.71801758 362.36987305 1197.71801758 361.18237305 1201.28051758 C356.82313707 1203.74834288 351.70001996 1204.12455612 346.8112793 1204.83129883 C345.87858215 1204.97035141 344.94588501 1205.10940399 343.98492432 1205.25267029 C340.90606786 1205.70784728 337.82574722 1206.15171412 334.74487305 1206.59301758 C333.68005707 1206.746698 332.61524109 1206.90037842 331.51815796 1207.05871582 C308.46401305 1210.37158289 285.3747967 1213.14053026 262.18237305 1215.28051758 C261.28335266 1215.36408508 260.38433228 1215.44765259 259.45806885 1215.53375244 C235.04418939 1217.77512639 210.69610336 1218.57347749 186.18237305 1218.65551758 C184.94670593 1218.66346344 183.71103882 1218.6714093 182.43792725 1218.67959595 C128.91936167 1218.94508716 72.23119056 1210.00724257 32.2800293 1171.40942383 C23.1618662 1162.33675203 15.68922223 1152.35495392 9.18237305 1141.28051758 C8.81402344 1140.66289551 8.44567383 1140.04527344 8.06616211 1139.40893555 C-23.00241946 1086.60851439 -21.94804053 1020.98088222 -22.00190676 961.68481409 C-22.00755401 956.62328638 -22.01874851 951.56177006 -22.02914268 946.50025028 C-22.0487885 936.49485129 -22.06317458 926.48945116 -22.07580111 916.48404112 C-22.08644399 908.16359702 -22.09935549 899.8431589 -22.11366844 891.52272034 C-22.11573867 890.31739186 -22.1178089 889.11206339 -22.11994187 887.87020981 C-22.12416757 885.41140857 -22.12839365 882.95260732 -22.13262012 880.49380608 C-22.26165174 804.72481917 -22.32827378 728.95570207 -22.41493304 616.05319319 C-22.42330274 603.51971158 -22.43198737 590.98623018 -22.44081981 578.45274889 C-22.44238321 576.23088372 -22.44393568 574.00901854 -22.44548798 571.78715336 C-22.47838306 524.90779419 -22.54484631 478.02856241 -22.6310438 431.14927303 C-22.69401259 396.89538377 -22.75202034 362.64152311 -22.77467823 328.38757992 C-22.77514646 327.68328739 -22.77561469 326.97899487 -22.77609711 326.25336015 C-22.78627579 310.79363039 -22.79369624 295.33390054 -22.79851843 279.87416823 C-22.80050278 273.65458085 -22.80286136 267.43499362 -22.80533791 261.21540642 C-22.80559914 260.53475608 -22.80586037 259.85410575 -22.80612952 259.15282965 C-22.8147197 237.23501854 -22.85456286 215.31740191 -22.9107127 193.39966518 C-22.9686409 170.72378232 -22.99104871 148.0480693 -22.97215392 125.37210567 C-22.96235787 112.29879717 -22.98053214 99.22621904 -23.03846559 86.15303151 C-23.07440042 77.42564605 -23.07415232 68.69875007 -23.04426926 59.97134294 C-23.02827119 54.99571828 -23.02818351 50.02148354 -23.07213756 45.04599649 C-23.11182463 40.51827452 -23.10535239 35.9930397 -23.06226804 31.46537021 C-23.05484094 29.83903723 -23.06413369 28.21251849 -23.0923314 26.58641301 C-23.22480055 18.42320175 -22.8012164 12.07808804 -17.09160358 5.8205809 C-11.75043092 0.46088313 -7.35572601 -0.25427878 0 0 Z " fill="#104D33" transform="translate(6774.817626953125,6893.719482421875)"/>
<path d="M0 0 C1.13801056 -0.00481888 2.27602112 -0.00963776 3.44851685 -0.01460266 C7.1968187 -0.0171276 10.93908878 0.05862678 14.68652344 0.13598633 C17.31375894 0.15145398 19.94102527 0.162308 22.56829834 0.16877747 C28.07660454 0.18990056 33.58322215 0.25104159 39.09082031 0.34082031 C46.78385694 0.46615144 54.47608257 0.51866346 62.16997576 0.55650556 C68.21727026 0.58909914 74.26440294 0.64287114 80.31152344 0.69848633 C82.20025555 0.71549119 82.20025555 0.71549119 84.12714386 0.73283958 C102.81862902 0.92823534 121.64994239 1.36928126 140.04589844 5.03051758 C140.9045752 5.19970703 141.76325195 5.36889648 142.64794922 5.54321289 C160.18507306 9.19529379 177.83688949 16.17709227 191.29589844 28.28051758 C192.17761719 29.06942383 193.05933594 29.85833008 193.96777344 30.67114258 C219.89061976 55.16178744 228.37933055 94.03321641 229.39050251 128.50572553 C229.42789991 132.14640795 229.43547696 135.78595464 229.43177032 139.42682934 C229.43391849 140.83667036 229.43650117 142.24651077 229.43947524 143.65635028 C229.44637737 147.51965575 229.44715063 151.38294147 229.44690248 155.24625219 C229.44773378 159.45349888 229.45434051 163.66073721 229.46021318 167.86797935 C229.46971414 175.23833069 229.47556644 182.60867787 229.47902107 189.97903442 C229.4841815 200.93930514 229.49503835 211.89956503 229.50710051 222.85983006 C229.52725527 241.30173513 229.54295461 259.74364143 229.55625916 278.1855526 C229.57449169 303.37541874 229.59919937 328.5652756 229.62563306 353.75513432 C229.63794177 365.49296687 229.64993351 377.23079974 229.66184235 388.9686327 C229.66303487 390.14367973 229.66422739 391.31872675 229.66545605 392.52938127 C229.6937643 420.49549695 229.71896628 448.46161529 229.74365234 476.42773438 C229.74473354 477.65129117 229.74581474 478.87484797 229.7469287 480.13548225 C229.76337027 498.74632726 229.77965041 517.3571724 229.79589844 535.96801758 C229.81321903 555.80582691 229.83060392 575.64363618 229.84814453 595.48144531 C229.849224 596.70358347 229.85030346 597.92572163 229.85141564 599.18489428 C229.8760823 627.09274332 229.90163481 655.00059118 229.92995453 682.90843678 C229.93173991 684.66838595 229.93173991 684.66838595 229.93356135 686.46388966 C229.94546509 698.17824808 229.95752311 709.89260633 229.96981156 721.60696436 C229.99616914 746.76587926 230.01982123 771.92479257 230.03798495 797.08371481 C230.05126836 815.42605023 230.06792177 833.76837991 230.08808005 852.11070909 C230.09993447 863.00525654 230.10901068 873.89979819 230.11412602 884.79435093 C230.11781233 892.07638733 230.12507605 899.35841456 230.13521034 906.64044483 C230.14087569 910.78629576 230.14500667 914.932132 230.14473921 919.07798716 C230.14452385 922.85845407 230.14893821 926.63888774 230.15686039 930.4193461 C230.1598687 932.40102185 230.15809736 934.38270316 230.15606135 936.36438015 C230.20088025 954.58887689 230.20088025 954.58887689 233.04589844 972.53051758 C233.22217773 973.28083252 233.39845703 974.03114746 233.58007812 974.80419922 C237.20629131 989.56060865 243.58543394 1001.91379868 256.44824219 1010.56567383 C271.27745152 1019.49574639 287.11952919 1021.35253211 304.10839844 1021.59692383 C305.31786133 1021.61770493 306.52732422 1021.63848602 307.7734375 1021.65989685 C311.61420334 1021.72496801 315.45503408 1021.7840791 319.29589844 1021.84301758 C321.90918624 1021.88624319 324.52246762 1021.92985874 327.13574219 1021.97387695 C333.52239353 1022.08060561 339.90910857 1022.1824487 346.29589844 1022.28051758 C357.96172806 1050.76477999 362.55766993 1081.78637661 365.29589844 1112.28051758 C365.3679248 1113.05492188 365.43995117 1113.82932617 365.51416016 1114.62719727 C367.40693114 1136.045131 367.20165031 1158.35883343 365.48339844 1179.78051758 C365.37838013 1181.13717529 365.37838013 1181.13717529 365.27124023 1182.52124023 C364.63422857 1189.29274408 363.08135753 1195.72603129 361.29589844 1202.28051758 C327.27908966 1208.49192016 292.92531122 1212.61641094 258.48339844 1215.59301758 C257.54665283 1215.67423859 256.60990723 1215.75545959 255.64477539 1215.83914185 C249.53146989 1216.36288655 243.41604505 1216.84394737 237.29589844 1217.28051758 C236.16887009 1217.36163788 236.16887009 1217.36163788 235.01907349 1217.44439697 C220.80608999 1218.42793064 206.58085763 1218.49973667 192.33862305 1218.52075195 C188.39642966 1218.53042427 184.45476654 1218.56154199 180.51269531 1218.59301758 C154.96823261 1218.6996792 130.13419806 1216.35107215 105.29589844 1210.28051758 C104.52246094 1210.09263672 103.74902344 1209.90475586 102.95214844 1209.71118164 C64.64715989 1200.11783406 31.65573023 1177.1404022 10.89746094 1143.44458008 C-4.71590736 1117.20503576 -12.53255121 1087.39228867 -16.95410156 1057.40551758 C-17.18045288 1055.90661987 -17.18045288 1055.90661987 -17.41137695 1054.37744141 C-20.94920145 1028.64798988 -21.00916509 1002.79231453 -21.0044462 976.88125439 C-21.00570387 971.73720695 -21.01844809 966.59318441 -21.02959377 961.44915062 C-21.04982601 951.28400212 -21.05952929 941.11886917 -21.06582161 930.95370357 C-21.07384645 918.76413776 -21.09328591 906.57459633 -21.11271762 894.38504432 C-21.15898883 864.95230727 -21.18467659 835.51956723 -21.2063577 806.08680453 C-21.21355534 796.34109932 -21.22149367 786.59539491 -21.22990823 776.84969068 C-21.23110803 775.4577999 -21.23230771 774.06590912 -21.23350728 772.67401834 C-21.23410166 771.98439428 -21.23469605 771.29477022 -21.23530845 770.58424846 C-21.23590311 769.89419373 -21.23649776 769.204139 -21.23711043 768.49317352 C-21.23770567 767.80272253 -21.23830091 767.11227154 -21.23891419 766.40089779 C-21.27991261 718.75528045 -21.31494407 671.10966056 -21.33378616 623.46402896 C-21.33526747 619.72933266 -21.33677941 615.99463638 -21.33829151 612.25994009 C-21.33859125 611.5191411 -21.33889098 610.7783421 -21.3391998 610.01509466 C-21.34223962 602.51049636 -21.34531433 595.00589808 -21.34843042 587.50129982 C-21.3490537 585.99667651 -21.34967385 584.49205319 -21.35029087 582.98742988 C-21.37013503 534.60473566 -21.42227555 486.22216033 -21.49638241 437.83952035 C-21.54967641 403.0342163 -21.59885377 368.22893631 -21.61566639 333.42359257 C-21.61601397 332.70797934 -21.61636154 331.99236612 -21.61671965 331.25506765 C-21.62425444 315.5469671 -21.62925151 299.83886672 -21.63187371 284.13076461 C-21.63296475 277.81132351 -21.63437514 271.49188249 -21.63587379 265.17244148 C-21.63602856 264.48086664 -21.63618332 263.7892918 -21.63634278 263.07676014 C-21.64146921 240.80744598 -21.67420199 218.53827865 -21.72116876 196.26901666 C-21.76959275 173.23075792 -21.78578261 150.19268301 -21.76464035 127.15436261 C-21.75342754 113.87225918 -21.76734238 100.59073267 -21.81700586 87.30871437 C-21.84768931 78.44220672 -21.84580696 69.5760956 -21.81723622 60.7095818 C-21.80187936 55.65462533 -21.80083941 50.60077334 -21.83940776 45.54591613 C-21.87421999 40.94630096 -21.86751384 36.34867673 -21.827844 31.74911795 C-21.82083641 30.09671101 -21.82887926 28.44415315 -21.85392276 26.79192114 C-21.99117147 17.10727104 -20.90508166 10.76182654 -14.17050361 3.22173095 C-9.74137685 -0.26427009 -5.45115774 -0.18779898 0 0 Z " fill="#104D33" transform="translate(10227.7041015625,6893.719482421875)"/>
</svg>
